inDegrees=no
num_controls=7
num_derivatives=13
num_iterations=116
num_multipliers=7
num_parameters=0
num_slacks=7
num_states=26
objective=5.956086
objective_accelerations=0.392385
objective_balance=0.032447
objective_effort=0.426020
objective_height=5.059954
objective_ligament=0.045280
solver_duration=1021.196899
status=Solve_Succeeded
success=true
DataType=double
version=3
OpenSimVersion=4.4-2022-07-23-0e9fedc
endheader
time	/jointset/ground_pelvis/pelvis_tilt/value	/jointset/ground_pelvis/pelvis_tx/value	/jointset/ground_pelvis/pelvis_ty/value	/jointset/hip_r/hip_flexion_r/value	/jointset/hip_r/hip_adduction_r/value	/jointset/hip_r/hip_rotation_r/value	/jointset/back/lumbar_extension/value	/jointset/patellofemoral_r/patellar_flexion_r/value	/jointset/knee_r/knee_flexion_r/value	/jointset/knee_r/knee_adduction_r/value	/jointset/knee_r/knee_rotation_r/value	/jointset/ankle_r/ankle_angle_r/value	/jointset/subtalar_r/subtalar_angle_r/value	/jointset/ground_pelvis/pelvis_tilt/speed	/jointset/ground_pelvis/pelvis_tx/speed	/jointset/ground_pelvis/pelvis_ty/speed	/jointset/hip_r/hip_flexion_r/speed	/jointset/hip_r/hip_adduction_r/speed	/jointset/hip_r/hip_rotation_r/speed	/jointset/back/lumbar_extension/speed	/jointset/patellofemoral_r/patellar_flexion_r/speed	/jointset/knee_r/knee_flexion_r/speed	/jointset/knee_r/knee_adduction_r/speed	/jointset/knee_r/knee_rotation_r/speed	/jointset/ankle_r/ankle_angle_r/speed	/jointset/subtalar_r/subtalar_angle_r/speed	/forceset/tau_hip_flexion_r	/forceset/tau_hip_adduction_r	/forceset/tau_hip_rotation_r	/forceset/tau_knee_flexion_r	/forceset/tau_ankle_angle_r	/forceset/tau_subtalar_angle_r	/forceset/tau_lumbar_extension	lambda_cid13_p0	lambda_cid14_p0	lambda_cid14_p1	lambda_cid14_p2	lambda_cid14_p3	lambda_cid14_p4	lambda_cid14_p5	/jointset/ground_pelvis/pelvis_tilt/accel	/jointset/ground_pelvis/pelvis_tx/accel	/jointset/ground_pelvis/pelvis_ty/accel	/jointset/hip_r/hip_flexion_r/accel	/jointset/hip_r/hip_adduction_r/accel	/jointset/hip_r/hip_rotation_r/accel	/jointset/back/lumbar_extension/accel	/jointset/patellofemoral_r/patellar_flexion_r/accel	/jointset/knee_r/knee_flexion_r/accel	/jointset/knee_r/knee_adduction_r/accel	/jointset/knee_r/knee_rotation_r/accel	/jointset/ankle_r/ankle_angle_r/accel	/jointset/subtalar_r/subtalar_angle_r/accel	gamma_cid13_p0	gamma_cid14_p0	gamma_cid14_p1	gamma_cid14_p2	gamma_cid14_p3	gamma_cid14_p4	gamma_cid14_p5
0	-0.00651670519068645	0.09626121681134191	0.9427240283779277	0.1762555651711513	-0.2321527066413758	-0.2616406997801753	-0.0385979564078546	0.07317816487762732	0.07317816487761825	0.1745329143531383	0.1745328547354625	0.0324735960626065	-0.003451804130007421	0	0	0	0	0	0	0	0	0	0	0	0	0	0.2190288276986226	-0.1073679955141059	-0.04523192158722365	-0.4084602889974296	0.4246551749624184	-0.1971910001248959	-0.1146298103917546	-39.07620922605432	84.70500819383273	-60.76395900959642	-1.326239774816513	-39.27376866748705	-680.6054530551586	14.19300298235919	-1.289248535511533	-0.7779142483846074	-0.4751821741439536	7.133230546782764	0.1973372952291541	2.16495184408029	-4.75138024066904	8.143556146736854	8.143556146743935	-2.592794720627817	0.1502479637091867	3.061104221323014	0.898255656903739	7.853336621250336e-08	4.72393754889601e-08	-5.145448832904169e-07	1.737737221506021e-07	2.313670727795997e-08	1.140329802661566e-08	-2.723873958106795e-07
0.01	-0.006575722474219291	0.09622457356172366	0.9427012839046363	0.1765984166828623	-0.2321421469573725	-0.261524700327822	-0.03883576006491189	0.07357455975385339	0.07357455975387703	0.1744039544093056	0.1745297431921019	0.03262555232991071	-0.003406508849066231	-0.01172904861690358	-0.007128332473403794	-0.004534311725700331	0.06807280286815148	0.002028221030295427	0.02311283959845084	-0.04711276921561038	0.07901809788072083	0.07901809788073499	-0.02553660572422986	-0.0005953821577412948	0.0304924092452533	0.008995036804271892	0.2176664633807433	-0.161666033823537	-0.0448244138226133	-0.4113062241620422	0.420537741021961	-0.1481072867002362	-0.112673361800178	-39.0894114807926	85.31331588486358	-39.61431718345433	-4.385183388847381	-42.64366214304346	-680.9975043106866	56.76119742775367	-1.103567226152439	-0.6502405017021763	-0.4403659512554544	6.569684680909972	0.1929577140111448	2.37143361503232	-4.624030932762495	7.74178929692	7.741789296917695	-2.495847904409811	-0.1603433968600546	3.058496522292157	0.890463651805069	1.089238640098413e-07	4.97493352390949e-08	-7.314542178107037e-07	1.896850681636214e-07	5.165736873771406e-08	-1.103776783757697e-07	-3.571046252721548e-07
0.02	-0.006749797084188382	0.09612265743639481	0.9426336342581938	0.1776070721280604	-0.2321138264216494	-0.2611801757600112	-0.03953125254827601	0.07475330614656341	0.07475330614656962	0.1740272775269083	0.1745214954086208	0.03308547013890211	-0.00327319600815893	-0.02301146528874301	-0.01305457514212445	-0.008981034630245358	0.1331607866994445	0.003552170343850945	0.04570502308909161	-0.09153776526145257	0.1564703032886572	0.1564703032886502	-0.04954338769202526	-0.001027247969236569	0.06159230833713763	0.01760351199318966	0.2163040990627284	-0.2159640721329814	-0.0444169060584225	-0.4141521593266524	0.4164203070814826	-0.09902357327558847	-0.1107169132086901	-39.12851463013723	85.99413871872045	-18.4669316239519	-7.426685916161774	-46.19297200536068	-680.3067338013816	99.12750175931423	-1.199922146498804	-0.5374962874478945	-0.457664409912898	6.536266739411056	0.0964829518811381	2.060820622517857	-4.213825606715453	7.830377652180025	7.830377652180034	-2.286829969340836	0.1829512329588193	3.182602190649302	0.8209433338329033	1.393143618071793e-07	5.225929498922971e-08	-9.483635523309903e-07	2.055964141766406e-07	8.017803019746815e-08	-2.32158654778155e-07	-4.418218547336302e-07
0.03	-0.007034829315268703	0.09596499184224794	0.9425217133436514	0.1792548569332832	-0.232072208725652	-0.2606149373364955	-0.0406594052763633	0.07669845387216133	0.07669845387215611	0.1734174137802212	0.1745116769069203	0.03385603671416217	-0.003055846460616233	-0.03393070289706156	-0.01852627831865368	-0.01340797477258716	0.1961625561778536	0.004741505944347343	0.06721763936899687	-0.1338549853257689	0.2321945591740582	0.2321945591740558	-0.07224329803579141	-0.0009478294477005144	0.09226676328565232	0.02577925258204203	0.2087871156517097	-0.1939415087642516	-0.04238757634921592	-0.4023107927242908	0.401463298665964	-0.1119107956257258	-0.1051432528889516	-39.1926855309935	80.6927346292653	-24.94895543718252	-6.442544080083864	-41.70123818156409	-679.9304263522806	84.77994564658377	-1.028269323501527	-0.5591513764033021	-0.4359797143330443	6.147097825274927	0.1255787354765159	2.177784796003662	-4.205000951893497	7.388719173054204	7.388719173054904	-2.233787747981728	-0.08119909002180342	2.971756783859793	0.8026913252422054	1.540969170986454e-07	5.360840771674776e-08	-1.045094650633889e-06	1.972751591888642e-07	9.343437088993098e-08	-3.233265717434737e-07	-4.636942738123874e-07
0.04	-0.007427122873527738	0.09575118040760655	0.9423653688480975	0.1815256525879428	-0.232019613699381	-0.2598383122171271	-0.04220359635421356	0.0793898980798481	0.07938989807984989	0.1725861076939252	0.174502325340125	0.03492572576628938	-0.002759379126418921	-0.04446373072550517	-0.02428374324102794	-0.01786575083257077	0.2577629565850359	0.005747636398549863	0.08798236225996341	-0.1747454352142489	0.3057295997128204	0.3057295997128223	-0.09383185562304774	-0.0009338609970748335	0.1214168037104553	0.033427069324127	0.2012701322407155	-0.1719189453955191	-0.04035824663974313	-0.39046942612198	0.3865062902504371	-0.1247980179758661	-0.09956959256918438	-39.28074915258907	75.4585473799343	-31.44594901725288	-5.425472703969419	-37.37515537333698	-678.5302653093171	70.21749263372877	-1.122680190523891	-0.5946486366168207	-0.4638315934412642	6.255992925165677	0.05984192262233982	1.911241944729868	-3.928471571548198	7.392534582852301	7.392534582852218	-2.064559418038812	0.1698612187769895	2.877719285907036	0.7153585644794176	1.685576591425676e-07	5.493358545410877e-08	-1.13934784715911e-06	1.884542629433395e-07	1.063759833191507e-07	-4.138632916069972e-07	-4.84270923604903e-07
0.05	-0.007923125070453297	0.09547915425117127	0.9421641455298306	0.1844052626058087	-0.2319580862543234	-0.2588588938381354	-0.04414858637476163	0.08280679852350992	0.08280679852350362	0.1715449032045694	0.1744940729311873	0.03628060557272655	-0.002388966720202164	-0.05466408032609693	-0.03008868330310203	-0.02239091711455094	0.3178413651974069	0.006526289527196236	0.1077865339441881	-0.213957611440157	0.3773243591888882	0.3773243591888873	-0.114216249307057	-0.0007375333555403931	0.1494247551397125	0.04059532275889303	0.1951435136901813	-0.1661604668455106	-0.03867044562866259	-0.3835699229774014	0.3763774627707083	-0.1245169315606708	-0.09471373365292995	-39.39124877629346	72.28369757076776	-31.95069525655423	-5.263984899390995	-35.49935657680918	-677.6153492192826	67.94876671312944	-0.9577989498908306	-0.5684745995964612	-0.4487432939183219	5.83612325393927	0.08201435826377231	1.997845441565852	-3.873347029927976	6.993993327262748	6.993993327262354	-1.996618365019098	-0.05854412818469078	2.742206347650264	0.7083868052104745	1.669873742389131e-07	5.015455949534964e-08	-1.122396376718241e-06	1.827895233384973e-07	1.111958923184609e-07	-4.737659850748885e-07	-4.835389947965226e-07
0.06	-0.008518948084392226	0.09515006711239671	0.9419172937190754	0.1878761283947315	-0.2318897448079243	-0.2576848656100478	-0.04647684943393338	0.08692985590137264	0.08692985590137267	0.1703056069741363	0.1744871712656799	0.0379115395486976	-0.001948706165190897	-0.06442789412926811	-0.03569593970888386	-0.02699144933026644	0.3760141107964315	0.007110436666953295	0.1269043320802919	-0.2514000429387121	0.4469609865561056	0.4469609865561017	-0.1334502038485562	-0.0006637123150592233	0.1766276376175795	0.04739669908307231	0.1890168951396195	-0.1604019882954753	-0.03698264461745504	-0.3766704198328403	0.3662486352909902	-0.1242358451454466	-0.08985787473671358	-39.52246429112221	69.16993649874195	-32.46309357663123	-5.080318233281713	-33.7762139769857	-675.7804934848722	65.49587543782265	-1.035373031039845	-0.555111905358299	-0.478904780188332	5.874860322496376	0.02094072484445872	1.773967235105509	-3.574522626077645	7.000908161082234	7.000908161082096	-1.834471589536738	0.1453598985665183	2.716705495629075	0.6419831423620649	1.647420987269396e-07	4.511851443359597e-08	-1.10076260451038e-06	1.772576745395786e-07	1.156738348575644e-07	-5.323788247998059e-07	-4.819098626786308e-07
